<?xml version="1.0" standalone="no"?>
<!DOCTYPE svg PUBLIC "-//W3C//DTD SVG 20010904//EN"
 "http://www.w3.org/TR/2001/REC-SVG-20010904/DTD/svg10.dtd">
<svg version="1.0" xmlns="http://www.w3.org/2000/svg"
 width="626.000000pt" height="314.000000pt" viewBox="0 0 626.000000 314.000000"
 preserveAspectRatio="xMidYMid meet">

<g transform="translate(0.000000,314.000000) scale(0.100000,-0.100000)"
fill="#000000" stroke="none">
<path d="M2565 2782 l-540 -237 553 -3 c303 -1 801 -1 1104 0 l553 3 -545 238
c-300 130 -554 237 -565 236 -11 0 -263 -107 -560 -237z m1022 1 l453 -198
-455 -3 c-250 -1 -660 -1 -910 0 l-455 3 447 196 c247 108 452 197 458 198 5
1 213 -88 462 -196z"/>
<path d="M1450 2365 l0 -75 1680 0 1680 0 0 75 0 75 -1680 0 -1680 0 0 -75z
m3318 3 l3 -38 -1640 0 -1641 0 0 33 c0 19 3 37 7 40 3 4 740 6 1637 5 l1631
-3 3 -37z"/>
<path d="M897 2193 c-4 -3 -7 -39 -7 -80 l0 -73 2240 0 2241 0 -3 78 -3 77
-2231 3 c-1227 1 -2234 -1 -2237 -5z m4431 -75 l3 -38 -2200 0 -2201 0 0 33
c0 19 3 37 7 40 3 4 992 6 2197 5 l2191 -3 3 -37z"/>
<path d="M450 1870 l0 -80 2680 0 2680 0 0 80 0 80 -2680 0 -2680 0 0 -80z
m5320 0 l0 -40 -2640 0 -2640 0 0 40 0 40 2640 0 2640 0 0 -40z"/>
<path d="M759 1667 c-100 -28 -191 -105 -232 -196 -26 -58 -29 -197 -4 -253
42 -97 137 -160 303 -198 129 -30 209 -58 229 -80 20 -22 22 -78 5 -110 -18
-34 -86 -60 -161 -60 -91 0 -159 34 -196 98 -15 26 -27 48 -28 50 -1 1 -52
-10 -113 -24 -88 -21 -112 -31 -112 -44 0 -34 62 -140 103 -175 94 -81 200
-110 373 -103 147 6 212 29 291 101 74 68 105 132 111 228 12 196 -90 298
-359 360 -73 17 -145 37 -160 45 -74 38 -79 123 -9 159 37 19 149 20 194 1 33
-14 86 -72 86 -94 0 -7 3 -12 7 -12 15 0 198 63 207 70 14 14 -45 109 -97 155
-72 65 -138 87 -277 91 -74 3 -131 -1 -161 -9z"/>
<path d="M4180 1664 c-205 -57 -340 -270 -340 -538 0 -242 104 -437 277 -519
66 -31 72 -32 203 -32 130 0 137 1 200 31 132 62 212 167 239 310 l8 43 -61 5
c-183 16 -187 16 -190 3 -2 -6 -9 -31 -15 -55 -26 -93 -114 -152 -205 -137
-85 15 -120 47 -149 140 -29 94 -31 307 -3 401 40 138 141 195 252 145 51 -23
81 -71 97 -152 l11 -62 81 7 c44 3 102 6 129 6 l49 0 -7 55 c-17 147 -118 287
-241 335 -78 30 -251 38 -335 14z"/>
<path d="M5227 1670 c-184 -47 -312 -221 -336 -460 -29 -273 81 -522 266 -608
53 -24 69 -26 188 -27 126 0 132 1 198 32 119 57 202 166 244 323 28 102 25
303 -5 400 -50 158 -133 264 -249 317 -49 23 -74 27 -163 29 -58 2 -122 -1
-143 -6z m213 -223 c76 -51 104 -151 98 -351 -5 -164 -26 -235 -83 -284 -67
-59 -169 -51 -228 19 -115 134 -95 533 32 617 47 31 135 31 181 -1z"/>
<path d="M1576 1138 c-93 -293 -171 -539 -174 -546 -3 -10 20 -12 109 -10
l113 3 33 108 34 107 177 -2 177 -3 30 -107 30 -108 137 0 c76 0 138 1 138 3
0 1 -76 245 -168 542 l-169 540 -149 3 -149 2 -169 -532z m349 47 c27 -88 50
-166 53 -172 3 -10 -22 -13 -107 -13 -95 0 -111 2 -111 16 0 9 21 84 46 167
25 84 48 161 51 171 8 28 15 12 68 -169z"/>
<path d="M2500 1125 l0 -545 105 0 105 0 0 437 c0 240 3 433 6 430 4 -4 64
-199 134 -434 l128 -428 89 -3 89 -3 129 428 c70 235 132 435 136 443 5 8 9
-184 9 -427 l0 -443 125 0 125 0 0 545 0 545 -197 0 -198 0 -94 -308 c-52
-169 -97 -314 -101 -321 -6 -11 -11 -3 -19 25 -6 21 -48 166 -92 322 l-82 282
-199 0 -198 0 0 -545z"/>
<path d="M450 370 l0 -80 2680 0 2680 0 0 80 0 80 -2680 0 -2680 0 0 -80z
m5320 0 l0 -40 -2640 0 -2640 0 0 40 0 40 2640 0 2640 0 0 -40z"/>
</g>
</svg>
